<svg xmlns="http://www.w3.org/2000/svg" width="276px" height="312px" xmlns:xlink="http://www.w3.org/1999/xlink" version="1.1"><defs/><g transform="translate(0.5,0.5)"><path d="M 89 77 C 61 77 54 140 76 153 C 54 180 79 241 97 216 C 110 266 151 266 165 216 C 193 216 193 165 176 140 C 193 90 165 39 141 64 C 124 27 96 27 89 77 Z" fill="#ffffff" stroke="#555555" stroke-miterlimit="10" pointer-events="none"/><ellipse cx="18" cy="10" rx="7.5" ry="7.5" fill="#eeeeee" stroke="#555555" pointer-events="none"/><path d="M 18 17 L 18 42 M 18 22 L 3 22 M 18 22 L 33 22 M 18 42 L 3 62 M 18 42 L 33 62" fill="none" stroke="#555555" stroke-miterlimit="10" pointer-events="none"/><g text-anchor="middle" font-size="14px"><text x="18" y="82" fill="#555555" font-family="Helvetica">Jack</text></g><ellipse cx="18" cy="101" rx="7.5" ry="7.5" fill="#eeeeee" stroke="#555555" pointer-events="none"/><path d="M 18 108 L 18 133 M 18 113 L 3 113 M 18 113 L 33 113 M 18 133 L 3 153 M 18 133 L 33 153" fill="none" stroke="#555555" stroke-miterlimit="10" pointer-events="none"/><g text-anchor="middle" font-size="14px"><text x="18" y="173" fill="#555555" font-family="Helvetica">Larry</text></g><ellipse cx="18" cy="222" rx="7.5" ry="7.5" fill="#eeeeee" stroke="#555555" pointer-events="none"/><path d="M 18 229 L 18 254 M 18 234 L 3 234 M 18 234 L 33 234 M 18 254 L 3 274 M 18 254 L 33 274" fill="none" stroke="#555555" stroke-miterlimit="10" pointer-events="none"/><g text-anchor="middle" font-size="14px"><text x="18" y="294" fill="#555555" font-family="Helvetica">Alex</text></g><path d="M 214 64 L 214 24 C 214 18 227 14 244 14 C 261 14 274 18 274 24 L 274 64 C 274 70 261 74 244 74 C 227 74 214 70 214 64 Z" fill="#ffffff" stroke="#555555" stroke-width="2" stroke-miterlimit="10" pointer-events="none"/><path d="M 214 24 C 214 30 227 34 244 34 C 261 34 274 30 274 24" fill="none" stroke="#555555" stroke-width="2" stroke-miterlimit="10" pointer-events="none"/><g text-anchor="middle" font-size="18px"><text x="244" y="62" fill="#555555" font-family="Helvetica" font-weight="bold">G</text></g><path d="M 214 164 L 214 124 C 214 118 227 114 244 114 C 261 114 274 118 274 124 L 274 164 C 274 170 261 174 244 174 C 227 174 214 170 214 164 Z" fill="#ffffff" stroke="#555555" stroke-width="2" stroke-miterlimit="10" pointer-events="none"/><path d="M 214 124 C 214 130 227 134 244 134 C 261 134 274 130 274 124" fill="none" stroke="#555555" stroke-width="2" stroke-miterlimit="10" pointer-events="none"/><g text-anchor="middle" font-size="18px"><text x="244" y="162" fill="#555555" font-family="Helvetica" font-weight="bold">G</text></g><path d="M 214 274 L 214 234 C 214 228 227 224 244 224 C 261 224 274 228 274 234 L 274 274 C 274 280 261 284 244 284 C 227 284 214 280 214 274 Z" fill="#ffffff" stroke="#555555" stroke-width="2" stroke-miterlimit="10" pointer-events="none"/><path d="M 214 234 C 214 240 227 244 244 244 C 261 244 274 240 274 234" fill="none" stroke="#555555" stroke-width="2" stroke-miterlimit="10" pointer-events="none"/><g text-anchor="middle" font-size="18px"><text x="244" y="272" fill="#555555" font-family="Helvetica" font-weight="bold">G</text></g><path d="M 44 234 L 104 194" fill="none" stroke="#555555" stroke-miterlimit="10" pointer-events="none"/><path d="M 204 249 L 144 199" fill="none" stroke="#555555" stroke-miterlimit="10" pointer-events="none"/><path d="M 134 84 L 194 54" fill="none" stroke="#555555" stroke-miterlimit="10" pointer-events="none"/><path d="M 154 135 L 204 144" fill="none" stroke="#555555" stroke-miterlimit="10" pointer-events="none"/><rect x="227" y="76" width="30" height="20" fill="none" stroke="none" pointer-events="none"/><g font-size="18px"><text x="229" y="95" fill="#555555" font-family="Helvetica">ADM</text></g><rect x="226" y="177" width="30" height="20" fill="none" stroke="none" pointer-events="none"/><g font-size="18px"><text x="228" y="196" fill="#555555" font-family="Helvetica">DEV</text></g><rect x="220" y="287" width="30" height="20" fill="none" stroke="none" pointer-events="none"/><g font-size="18px"><text x="222" y="306" fill="#555555" font-family="Helvetica">ROOT</text></g><path d="M 54 54 L 104 84" fill="none" stroke="#555555" stroke-miterlimit="10" pointer-events="none"/><path d="M 44 124 L 94 134" fill="none" stroke="#555555" stroke-miterlimit="10" pointer-events="none"/><rect x="93" y="119" width="61" height="50" fill="none" stroke="none" pointer-events="none"/><g text-anchor="middle" font-size="12px"><text x="124" y="132" fill="#555555" font-family="Helvetica">Users to</text><text x="124" y="146" fill="#555555" font-family="Helvetica">groups</text><text x="124" y="160" fill="#555555" font-family="Helvetica">mapping</text></g></g></svg>